<?xml version="1.0" encoding="UTF-8"?>
<svg id="Layer_2" data-name="Layer 2" xmlns="http://www.w3.org/2000/svg" viewBox="0 0 1136.83 1103.06">
  <defs>
    <style>
      .cls-1 {
        fill: #326ce5;
      }

      .cls-2 {
        fill: #fff;
        stroke: #fff;
        stroke-miterlimit: 3.13;
        stroke-width: .2px;
      }
    </style>
  </defs>
  <g id="Layer_1-2" data-name="Layer 1">
    <path class="cls-1" d="M564.47.1c-10.05.51-19.9,3-28.96,7.33L140.29,196.27c-20.72,9.9-35.77,28.61-40.89,50.85L1.9,671.3c-4.55,19.74-.85,40.48,10.26,57.47,1.33,2.06,2.77,4.05,4.3,5.97l273.56,340.12c14.34,17.83,36.09,28.21,59.09,28.21l438.69-.1c22.99.02,44.73-10.35,59.09-28.15l273.45-340.17c14.35-17.84,19.73-41.19,14.61-63.44l-97.65-424.18c-5.12-22.24-20.17-40.95-40.89-50.85L601.12,7.42c-11.4-5.45-24-7.97-36.65-7.33Z"/>
    <path class="cls-2" d="M568.39,144.45c-13.06,0-23.66,11.77-23.66,26.28,0,.22.05.44.05.66-.02,1.97-.11,4.35-.05,6.07.31,8.37,2.14,14.78,3.23,22.49,1.99,16.51,3.66,30.19,2.63,42.91-1,4.8-4.53,9.18-7.68,12.23l-.56,10.01c-14.39,1.18-28.68,3.38-42.76,6.57-61.42,13.95-114.31,45.59-154.57,88.3-2.87-1.98-5.72-4.01-8.54-6.07-4.22.57-8.49,1.87-14.05-1.37-10.59-7.12-20.23-16.96-31.89-28.81-5.35-5.67-9.22-11.07-15.57-16.53-1.44-1.24-3.64-2.92-5.26-4.2-4.97-3.96-10.82-6.02-16.48-6.22-7.27-.25-14.27,2.59-18.85,8.34-8.15,10.21-5.54,25.83,5.81,34.88.12.09.24.16.36.25,1.56,1.26,3.47,2.88,4.9,3.94,6.74,4.98,12.9,7.52,19.61,11.47,14.15,8.74,25.88,15.98,35.18,24.72,3.63,3.87,4.27,10.7,4.75,13.65l7.58,6.77c-40.59,61.08-59.37,136.53-48.27,213.41l-9.91,2.88c-2.61,3.37-6.3,8.68-10.16,10.26-12.17,3.83-25.87,5.24-42.41,6.97-7.76.65-14.46.26-22.7,1.82-1.81.34-4.33,1-6.32,1.47l-.2.05c-.11.02-.25.08-.35.1-13.94,3.37-22.9,16.18-20.02,28.81,2.89,12.63,16.5,20.31,30.53,17.29.1-.02.25-.03.36-.05.16-.04.3-.11.45-.15,1.96-.43,4.41-.91,6.12-1.36,8.09-2.17,13.95-5.35,21.23-8.14,15.65-5.61,28.61-10.3,41.25-12.13,5.27-.41,10.83,3.25,13.6,4.8l10.31-1.77c23.73,73.57,73.46,133.03,136.42,170.34l-4.3,10.31c1.55,4,3.26,9.42,2.1,13.38-4.59,11.9-12.45,24.47-21.41,38.48-4.33,6.47-8.77,11.5-12.69,18.9-.94,1.77-2.13,4.5-3.03,6.37-6.08,13.01-1.62,27.99,10.06,33.61,11.75,5.66,26.34-.31,32.65-13.34,0-.02.04-.03.05-.05,0-.01,0-.04,0-.05.9-1.85,2.17-4.28,2.93-6.02,3.35-7.68,4.47-14.26,6.82-21.68,6.26-15.72,9.7-32.22,18.31-42.5,2.36-2.81,6.21-3.9,10.19-4.97l5.36-9.7c54.9,21.07,116.34,26.73,177.72,12.79,13.8-3.14,27.36-7.22,40.59-12.23,1.51,2.67,4.3,7.81,5.05,9.1,4.05,1.32,8.48,2,12.08,7.33,6.45,11.01,10.85,24.04,16.22,39.78,2.36,7.43,3.52,14.01,6.87,21.68.76,1.75,2.03,4.21,2.93,6.07,6.3,13.08,20.93,19.07,32.7,13.4,11.68-5.63,16.14-20.61,10.06-33.61-.91-1.87-2.15-4.6-3.08-6.37-3.91-7.41-8.35-12.38-12.69-18.85-8.96-14.01-16.38-25.65-20.98-37.56-1.92-6.14.32-9.96,1.82-13.95-.89-1.03-2.81-6.83-3.94-9.55,65.44-38.64,113.7-100.32,136.37-171.55,3.06.48,8.38,1.42,10.11,1.77,3.56-2.35,6.83-5.41,13.24-4.9,12.63,1.83,25.59,6.52,41.25,12.13,7.28,2.79,13.14,6.02,21.23,8.19,1.71.46,4.16.88,6.12,1.31.16.04.3.11.45.15.11.02.25.03.36.05,14.03,3.02,27.65-4.66,30.53-17.29,2.88-12.63-6.07-25.45-20.02-28.81-2.03-.46-4.9-1.25-6.87-1.62-8.23-1.56-14.93-1.18-22.69-1.82-16.54-1.73-30.24-3.14-42.41-6.98-4.96-1.92-8.49-7.83-10.21-10.26l-9.55-2.78c4.95-35.84,3.62-73.13-4.95-110.44-8.65-37.66-23.94-72.11-44.33-102.46,2.45-2.23,7.08-6.33,8.39-7.53.38-4.24.05-8.69,4.45-13.39,9.3-8.73,21.03-15.98,35.18-24.72,6.72-3.95,12.92-6.5,19.66-11.47,1.53-1.13,3.61-2.91,5.21-4.2,11.34-9.05,13.96-24.66,5.81-34.88s-23.93-11.18-35.28-2.12c-1.61,1.28-3.81,2.95-5.26,4.2-6.35,5.46-10.27,10.86-15.62,16.53-11.67,11.85-21.31,21.74-31.89,28.86-4.59,2.67-11.31,1.75-14.36,1.57l-9,6.42c-51.3-53.8-121.16-88.19-196.37-94.87-.21-3.15-.49-8.85-.56-10.57-3.08-2.95-6.8-5.46-7.73-11.83-1.03-12.72.69-26.41,2.68-42.91,1.1-7.71,2.92-14.12,3.23-22.49.07-1.9-.04-4.66-.05-6.72,0-14.52-10.59-26.28-23.66-26.28h0ZM538.77,327.93l-7.02,124.09-.51.25c-.47,11.1-9.61,19.96-20.82,19.96-4.59,0-8.84-1.48-12.28-3.99l-.2.1-101.75-72.13c31.27-30.75,71.27-53.47,117.37-63.94,8.33-1.88,16.75-3.33,25.22-4.35h0ZM598.06,327.93c53.82,6.62,103.59,30.99,141.73,68.34l-101.09,71.67-.36-.15c-8.97,6.55-21.61,4.93-28.61-3.84-2.76-3.44-4.36-7.67-4.55-12.08l-.1-.05-7.02-123.89ZM359.28,442.57l92.9,83.1-.1.5c8.38,7.29,9.62,19.94,2.63,28.71-2.76,3.46-6.55,5.96-10.82,7.13l-.1.4-119.09,34.37c-6.06-55.42,7-109.3,34.57-154.21h0ZM776.84,442.62c13.8,22.37,24.26,47.36,30.48,74.46,6.15,26.77,7.69,53.48,5.15,79.31l-119.69-34.47-.1-.51c-10.72-2.93-17.31-13.83-14.81-24.77.97-4.3,3.29-8.18,6.62-11.07l-.05-.25,92.4-82.69h0ZM549.33,532.09h38.06l23.66,29.57-8.49,36.9-34.17,16.43-34.27-16.48-8.49-36.9,23.71-29.52ZM671.35,633.28c1.62-.08,3.23.06,4.8.35l.2-.25,123.18,20.82c-18.03,50.65-52.52,94.52-98.62,123.89l-47.82-115.5.15-.2c-4.39-10.21,0-22.18,10.11-27.04,2.59-1.25,5.29-1.94,7.99-2.07h0ZM464.47,633.79c9.4.13,17.83,6.66,20.02,16.23,1.02,4.48.52,8.92-1.16,12.84l.35.45-47.31,114.34c-44.23-28.38-79.47-70.88-98.31-123.03l122.12-20.72.2.25c1.37-.25,2.75-.37,4.09-.35h0ZM567.63,683.88c3.37-.12,6.72.59,9.75,2.07,4.14,1.99,7.34,5.13,9.35,8.9h.45l60.2,108.77c-7.9,2.64-15.93,4.89-24.06,6.72-46.04,10.45-91.94,7.29-133.49-6.87l60.05-108.57h.1c3.5-6.55,10.22-10.74,17.64-11.02h0Z"/>
  </g>
</svg>